<svg id="Layer_1" data-name="Layer 1" xmlns="http://www.w3.org/2000/svg" viewBox="0 0 472.5 25.8"><defs><style>.cls-1{fill:#231f20;}</style></defs><polygon class="cls-1" points="332.3 25.7 332.3 0 326.7 0 326.7 16.3 284.1 0 275 0 275 25.7 280.6 25.7 280.6 9.4 324.4 25.7 332.3 25.7"/><polygon class="cls-1" points="25.8 25.8 0 0 15.3 0 35.3 20.1 55.4 0 61.2 0 35.3 25.8 25.8 25.8"/><polygon class="cls-1" points="167.3 0 193 25.7 177.8 25.7 157.9 5.7 137.9 25.7 132.2 25.7 157.9 0 167.3 0"/><path class="cls-1" d="M538.1,35.8h0a12.8,12.8,0,0,0-12.8-13H482.4V48.5h42.9a13,13,0,0,0,12.8-11.4V35.8Zm-15.4,9H493V26.4h29.7a9.1,9.1,0,0,1,5.2,1.6l.4.4a10.3,10.3,0,0,1,3,7.4,10,10,0,0,1-3.6,7.5A8.4,8.4,0,0,1,522.7,44.8Z" transform="translate(-65.6 -22.8)"/></svg>