<svg id="Layer_1" data-name="Layer 1" xmlns="http://www.w3.org/2000/svg" viewBox="0 0 106.96 55.43"><defs><style>.cls-1{fill-rule:evenodd;}</style></defs><path class="cls-1" d="M526.81,377.32l16-16h5.67l-21.2,21.19h-7.77l-21.2-21.19H510.8Z" transform="translate(-498.31 -361.32)"/><path class="cls-1" d="M520,400.74l-16,16h-5.67l21.2-21.2h7.77l21.2,21.2H536Z" transform="translate(-498.31 -361.32)"/><polygon class="cls-1" points="59.26 21.2 63.85 21.2 63.85 7.98 100.24 21.2 106.6 21.2 106.6 0 102 0 102 12.96 66.32 0 59.26 0 59.26 21.2"/><path class="cls-1" d="M589.73,413.57a7.42,7.42,0,0,0,0-14.84H566.05v14.84Zm-32.16-18h37.11c6.36,0,10.6,4.24,10.6,10.6s-4.24,10.6-10.6,10.6H557.57Z" transform="translate(-498.31 -361.32)"/></svg>