<?xml version="1.0" encoding="UTF-8"?>
<svg id="Layer_1" data-name="Layer 1" xmlns="http://www.w3.org/2000/svg" viewBox="0 0 331.75 182.94">
  <defs>
    <style>
      .cls-1, .cls-2 {
        fill: #fff;
        stroke-width: 0px;
      }

      .cls-2 {
        fill-rule: evenodd;
      }
    </style>
  </defs>
  <polygon class="cls-1" points="300.4 15.67 300.4 53.51 201.81 15.67 180.77 15.67 180.77 75.14 193.79 75.14 193.79 37.41 295.19 75.14 313.42 75.14 313.42 15.67 300.4 15.67"/>
  <path class="cls-2" d="M75.09,126.04l-44.9,44.9h-15.91l59.48-59.48h21.81l59.48,59.48h-35.05l-44.9-44.9Z"/>
  <path class="cls-2" d="M94.45,60.57l44.9-44.9h15.91l-59.48,59.48h-21.81L14.51,15.67h35.05l44.9,44.9Z"/>
  <path class="cls-2" d="M204.56,119.89h65.12c11.77,0,21.31,9.54,21.31,21.31s-9.54,21.31-21.31,21.31h-65.12v-42.62ZM281.58,170.94c16.42,0,29.74-13.32,29.74-29.74s-13.31-29.74-29.74-29.74h-100.81v59.48h100.81Z"/>
</svg>